<mxfile host="Electron" modified="2024-03-01T16:29:05.442Z" agent="Mozilla/5.0 (Windows NT 10.0; Win64; x64) AppleWebKit/537.36 (KHTML, like Gecko) draw.io/22.1.2 Chrome/114.0.5735.289 Electron/25.9.4 Safari/537.36" etag="wbiqXFQXt-GGqbPW-UVQ" version="22.1.2" type="device">
  <diagram name="Страница — 1" id="r6bkzcHiYQrS2bsxJ93q">
    <mxGraphModel dx="1182" dy="723" grid="1" gridSize="10" guides="1" tooltips="1" connect="1" arrows="1" fold="1" page="1" pageScale="1" pageWidth="827" pageHeight="1169" math="0" shadow="0">
      <root>
        <mxCell id="0" />
        <mxCell id="1" parent="0" />
        <mxCell id="mIdbIiIFEZ60AHGsGnH3-1" value="начало" style="rounded=1;whiteSpace=wrap;html=1;" vertex="1" parent="1">
          <mxGeometry x="314" y="10" width="120" height="30" as="geometry" />
        </mxCell>
        <mxCell id="mIdbIiIFEZ60AHGsGnH3-2" value="&lt;div&gt;#include &amp;lt;iostream&amp;gt;&lt;/div&gt;&lt;div&gt;#include &amp;lt;string&amp;gt;&lt;/div&gt;&lt;div&gt;#include &amp;lt;windows.h&amp;gt;&lt;/div&gt;&lt;div&gt;&lt;br&gt;&lt;/div&gt;&lt;div&gt;const int DICT_SIZE = 5;&lt;/div&gt;&lt;div&gt;&lt;br&gt;&lt;/div&gt;&lt;div&gt;struct Translate {&lt;/div&gt;&lt;div&gt;std::string word;&lt;span style=&quot;&quot;&gt;&lt;/span&gt;&lt;/div&gt;&lt;div&gt;&lt;span style=&quot;&quot;&gt;&lt;span style=&quot;&quot;&gt;&lt;span style=&quot;&quot;&gt;&amp;nbsp;&amp;nbsp;&amp;nbsp;&amp;nbsp;&lt;/span&gt;&lt;/span&gt;std::string translation;&lt;/span&gt;&lt;/div&gt;&lt;div&gt;};&lt;/div&gt;&lt;div&gt;std::string translator(std::string word, Translate dict[])&lt;/div&gt;&lt;div&gt;&lt;br&gt;&lt;/div&gt;&lt;div&gt;&lt;div&gt;int main()&lt;/div&gt;&lt;div&gt;{&lt;/div&gt;&lt;/div&gt;" style="strokeWidth=2;html=1;shape=mxgraph.flowchart.annotation_2;align=left;labelPosition=right;pointerEvents=1;" vertex="1" parent="1">
          <mxGeometry x="480" y="10" width="20" height="210" as="geometry" />
        </mxCell>
        <mxCell id="mIdbIiIFEZ60AHGsGnH3-3" value="" style="endArrow=none;html=1;rounded=0;entryX=0.5;entryY=1;entryDx=0;entryDy=0;" edge="1" parent="1" target="mIdbIiIFEZ60AHGsGnH3-1">
          <mxGeometry width="50" height="50" relative="1" as="geometry">
            <mxPoint x="374" y="200" as="sourcePoint" />
            <mxPoint x="510" y="180" as="targetPoint" />
          </mxGeometry>
        </mxCell>
        <mxCell id="mIdbIiIFEZ60AHGsGnH3-4" value="" style="endArrow=none;dashed=1;html=1;rounded=0;entryX=0;entryY=0.5;entryDx=0;entryDy=0;entryPerimeter=0;exitX=0.5;exitY=1;exitDx=0;exitDy=0;" edge="1" parent="1" source="mIdbIiIFEZ60AHGsGnH3-1" target="mIdbIiIFEZ60AHGsGnH3-2">
          <mxGeometry width="50" height="50" relative="1" as="geometry">
            <mxPoint x="380" y="120" as="sourcePoint" />
            <mxPoint x="510" y="180" as="targetPoint" />
            <Array as="points">
              <mxPoint x="374" y="115" />
            </Array>
          </mxGeometry>
        </mxCell>
        <mxCell id="mIdbIiIFEZ60AHGsGnH3-7" value="" style="edgeStyle=orthogonalEdgeStyle;rounded=0;orthogonalLoop=1;jettySize=auto;html=1;" edge="1" parent="1" source="mIdbIiIFEZ60AHGsGnH3-5" target="mIdbIiIFEZ60AHGsGnH3-6">
          <mxGeometry relative="1" as="geometry" />
        </mxCell>
        <mxCell id="mIdbIiIFEZ60AHGsGnH3-5" value="&lt;div&gt;SetConsoleCP(1251);&lt;/div&gt;&lt;div&gt;SetConsoleOutputCP(1251);&lt;span style=&quot;&quot;&gt;&lt;/span&gt;&lt;/div&gt;" style="rounded=0;whiteSpace=wrap;html=1;" vertex="1" parent="1">
          <mxGeometry x="288" y="200" width="172" height="40" as="geometry" />
        </mxCell>
        <mxCell id="mIdbIiIFEZ60AHGsGnH3-9" value="" style="edgeStyle=orthogonalEdgeStyle;rounded=0;orthogonalLoop=1;jettySize=auto;html=1;" edge="1" parent="1" source="mIdbIiIFEZ60AHGsGnH3-6" target="mIdbIiIFEZ60AHGsGnH3-8">
          <mxGeometry relative="1" as="geometry" />
        </mxCell>
        <mxCell id="mIdbIiIFEZ60AHGsGnH3-6" value="Translate dict[DICT_SIZE] = {{&quot;THIS&quot;, &quot;ЭТО&quot;}, {&quot;IS&quot;, &quot;&quot;}, {&quot;A&quot;, &quot;&quot;}, {&quot;TABLE&quot;, &quot;СТОЛ&quot;}};" style="rounded=0;whiteSpace=wrap;html=1;" vertex="1" parent="1">
          <mxGeometry x="128" y="260" width="492" height="40" as="geometry" />
        </mxCell>
        <mxCell id="mIdbIiIFEZ60AHGsGnH3-11" value="" style="edgeStyle=orthogonalEdgeStyle;rounded=0;orthogonalLoop=1;jettySize=auto;html=1;" edge="1" parent="1" source="mIdbIiIFEZ60AHGsGnH3-8" target="mIdbIiIFEZ60AHGsGnH3-10">
          <mxGeometry relative="1" as="geometry" />
        </mxCell>
        <mxCell id="mIdbIiIFEZ60AHGsGnH3-8" value="std::string message, result, tmp;" style="rounded=0;whiteSpace=wrap;html=1;" vertex="1" parent="1">
          <mxGeometry x="278" y="320" width="192" height="40" as="geometry" />
        </mxCell>
        <mxCell id="mIdbIiIFEZ60AHGsGnH3-13" value="" style="edgeStyle=orthogonalEdgeStyle;rounded=0;orthogonalLoop=1;jettySize=auto;html=1;" edge="1" parent="1" source="mIdbIiIFEZ60AHGsGnH3-10" target="mIdbIiIFEZ60AHGsGnH3-12">
          <mxGeometry relative="1" as="geometry" />
        </mxCell>
        <mxCell id="mIdbIiIFEZ60AHGsGnH3-10" value="std::getline(std::cin, message);" style="shape=parallelogram;perimeter=parallelogramPerimeter;whiteSpace=wrap;html=1;fixedSize=1;" vertex="1" parent="1">
          <mxGeometry x="278" y="380" width="192" height="40" as="geometry" />
        </mxCell>
        <mxCell id="mIdbIiIFEZ60AHGsGnH3-15" value="" style="edgeStyle=orthogonalEdgeStyle;rounded=0;orthogonalLoop=1;jettySize=auto;html=1;" edge="1" parent="1" source="mIdbIiIFEZ60AHGsGnH3-12" target="mIdbIiIFEZ60AHGsGnH3-14">
          <mxGeometry relative="1" as="geometry" />
        </mxCell>
        <mxCell id="mIdbIiIFEZ60AHGsGnH3-12" value="int start = 0;" style="rounded=0;whiteSpace=wrap;html=1;" vertex="1" parent="1">
          <mxGeometry x="314" y="440" width="120" height="40" as="geometry" />
        </mxCell>
        <mxCell id="mIdbIiIFEZ60AHGsGnH3-19" value="" style="edgeStyle=orthogonalEdgeStyle;rounded=0;orthogonalLoop=1;jettySize=auto;html=1;" edge="1" parent="1" source="mIdbIiIFEZ60AHGsGnH3-14" target="mIdbIiIFEZ60AHGsGnH3-16">
          <mxGeometry relative="1" as="geometry" />
        </mxCell>
        <mxCell id="mIdbIiIFEZ60AHGsGnH3-14" value="for (int end = 1; end &amp;lt;= message.length(); end++)" style="shape=hexagon;perimeter=hexagonPerimeter2;whiteSpace=wrap;html=1;fixedSize=1;" vertex="1" parent="1">
          <mxGeometry x="178" y="510" width="392" height="30" as="geometry" />
        </mxCell>
        <mxCell id="mIdbIiIFEZ60AHGsGnH3-24" style="edgeStyle=orthogonalEdgeStyle;rounded=0;orthogonalLoop=1;jettySize=auto;html=1;entryX=0.5;entryY=0;entryDx=0;entryDy=0;exitX=0;exitY=0.5;exitDx=0;exitDy=0;" edge="1" parent="1" source="mIdbIiIFEZ60AHGsGnH3-16" target="mIdbIiIFEZ60AHGsGnH3-23">
          <mxGeometry relative="1" as="geometry" />
        </mxCell>
        <mxCell id="mIdbIiIFEZ60AHGsGnH3-43" style="edgeStyle=orthogonalEdgeStyle;rounded=0;orthogonalLoop=1;jettySize=auto;html=1;" edge="1" parent="1" source="mIdbIiIFEZ60AHGsGnH3-16">
          <mxGeometry relative="1" as="geometry">
            <mxPoint x="380" y="1070" as="targetPoint" />
            <Array as="points">
              <mxPoint x="520" y="613" />
              <mxPoint x="520" y="1070" />
            </Array>
          </mxGeometry>
        </mxCell>
        <mxCell id="mIdbIiIFEZ60AHGsGnH3-16" value="if ((message[end] == &#39;_&#39;) ||&lt;br&gt;(end == message.length()))&amp;nbsp;" style="rhombus;whiteSpace=wrap;html=1;" vertex="1" parent="1">
          <mxGeometry x="258" y="568" width="232" height="90" as="geometry" />
        </mxCell>
        <mxCell id="mIdbIiIFEZ60AHGsGnH3-20" value="1" style="text;html=1;align=center;verticalAlign=middle;resizable=0;points=[];autosize=1;strokeColor=none;fillColor=none;" vertex="1" parent="1">
          <mxGeometry x="248" y="580" width="30" height="30" as="geometry" />
        </mxCell>
        <mxCell id="mIdbIiIFEZ60AHGsGnH3-21" value="0" style="text;html=1;align=center;verticalAlign=middle;resizable=0;points=[];autosize=1;strokeColor=none;fillColor=none;" vertex="1" parent="1">
          <mxGeometry x="470" y="580" width="30" height="30" as="geometry" />
        </mxCell>
        <mxCell id="mIdbIiIFEZ60AHGsGnH3-22" value="1" style="text;html=1;align=center;verticalAlign=middle;resizable=0;points=[];autosize=1;strokeColor=none;fillColor=none;" vertex="1" parent="1">
          <mxGeometry x="344" y="538" width="30" height="30" as="geometry" />
        </mxCell>
        <mxCell id="mIdbIiIFEZ60AHGsGnH3-26" value="" style="edgeStyle=orthogonalEdgeStyle;rounded=0;orthogonalLoop=1;jettySize=auto;html=1;" edge="1" parent="1" source="mIdbIiIFEZ60AHGsGnH3-23" target="mIdbIiIFEZ60AHGsGnH3-25">
          <mxGeometry relative="1" as="geometry" />
        </mxCell>
        <mxCell id="mIdbIiIFEZ60AHGsGnH3-23" value="tmp = translator(message.substr(start, end - start), dict);" style="rounded=0;whiteSpace=wrap;html=1;" vertex="1" parent="1">
          <mxGeometry x="86" y="690" width="304" height="40" as="geometry" />
        </mxCell>
        <mxCell id="mIdbIiIFEZ60AHGsGnH3-28" value="" style="edgeStyle=orthogonalEdgeStyle;rounded=0;orthogonalLoop=1;jettySize=auto;html=1;" edge="1" parent="1" source="mIdbIiIFEZ60AHGsGnH3-25" target="mIdbIiIFEZ60AHGsGnH3-27">
          <mxGeometry relative="1" as="geometry" />
        </mxCell>
        <mxCell id="mIdbIiIFEZ60AHGsGnH3-25" value="std::cout &amp;lt;&amp;lt; message.substr(start, end - start) &amp;lt;&amp;lt; std::endl;" style="shape=parallelogram;perimeter=parallelogramPerimeter;whiteSpace=wrap;html=1;fixedSize=1;" vertex="1" parent="1">
          <mxGeometry x="66" y="760" width="344" height="40" as="geometry" />
        </mxCell>
        <mxCell id="mIdbIiIFEZ60AHGsGnH3-27" value="if (tmp != &quot;&quot;)" style="rhombus;whiteSpace=wrap;html=1;" vertex="1" parent="1">
          <mxGeometry x="186" y="840" width="104" height="40" as="geometry" />
        </mxCell>
        <mxCell id="mIdbIiIFEZ60AHGsGnH3-29" value="1" style="text;html=1;align=center;verticalAlign=middle;resizable=0;points=[];autosize=1;strokeColor=none;fillColor=none;" vertex="1" parent="1">
          <mxGeometry x="175" y="830" width="30" height="30" as="geometry" />
        </mxCell>
        <mxCell id="mIdbIiIFEZ60AHGsGnH3-30" value="0" style="text;html=1;align=center;verticalAlign=middle;resizable=0;points=[];autosize=1;strokeColor=none;fillColor=none;" vertex="1" parent="1">
          <mxGeometry x="278" y="830" width="30" height="30" as="geometry" />
        </mxCell>
        <mxCell id="mIdbIiIFEZ60AHGsGnH3-32" style="edgeStyle=orthogonalEdgeStyle;rounded=0;orthogonalLoop=1;jettySize=auto;html=1;exitX=0;exitY=0.5;exitDx=0;exitDy=0;entryX=0.5;entryY=0;entryDx=0;entryDy=0;" edge="1" parent="1" source="mIdbIiIFEZ60AHGsGnH3-27" target="mIdbIiIFEZ60AHGsGnH3-31">
          <mxGeometry relative="1" as="geometry">
            <mxPoint x="100" y="860" as="targetPoint" />
          </mxGeometry>
        </mxCell>
        <mxCell id="mIdbIiIFEZ60AHGsGnH3-40" style="edgeStyle=orthogonalEdgeStyle;rounded=0;orthogonalLoop=1;jettySize=auto;html=1;" edge="1" parent="1" source="mIdbIiIFEZ60AHGsGnH3-31">
          <mxGeometry relative="1" as="geometry">
            <mxPoint x="230" y="930" as="targetPoint" />
            <Array as="points">
              <mxPoint x="160" y="930" />
            </Array>
          </mxGeometry>
        </mxCell>
        <mxCell id="mIdbIiIFEZ60AHGsGnH3-31" value="result += (tmp + &quot;_&quot;);" style="rounded=0;whiteSpace=wrap;html=1;" vertex="1" parent="1">
          <mxGeometry x="100" y="890" width="120" height="30" as="geometry" />
        </mxCell>
        <mxCell id="mIdbIiIFEZ60AHGsGnH3-39" style="edgeStyle=orthogonalEdgeStyle;rounded=0;orthogonalLoop=1;jettySize=auto;html=1;entryX=0.5;entryY=0;entryDx=0;entryDy=0;" edge="1" parent="1" source="mIdbIiIFEZ60AHGsGnH3-33" target="mIdbIiIFEZ60AHGsGnH3-34">
          <mxGeometry relative="1" as="geometry" />
        </mxCell>
        <mxCell id="mIdbIiIFEZ60AHGsGnH3-33" value="start = end+1;" style="rounded=0;whiteSpace=wrap;html=1;" vertex="1" parent="1">
          <mxGeometry x="172" y="960" width="116" height="20" as="geometry" />
        </mxCell>
        <mxCell id="mIdbIiIFEZ60AHGsGnH3-44" style="edgeStyle=orthogonalEdgeStyle;rounded=0;orthogonalLoop=1;jettySize=auto;html=1;" edge="1" parent="1" source="mIdbIiIFEZ60AHGsGnH3-34">
          <mxGeometry relative="1" as="geometry">
            <mxPoint x="380" y="1070" as="targetPoint" />
            <Array as="points">
              <mxPoint x="230" y="1070" />
            </Array>
          </mxGeometry>
        </mxCell>
        <mxCell id="mIdbIiIFEZ60AHGsGnH3-34" value="end++;" style="rounded=0;whiteSpace=wrap;html=1;" vertex="1" parent="1">
          <mxGeometry x="170" y="1000" width="120" height="20" as="geometry" />
        </mxCell>
        <mxCell id="mIdbIiIFEZ60AHGsGnH3-41" value="" style="endArrow=classic;html=1;rounded=0;exitX=1;exitY=0.5;exitDx=0;exitDy=0;" edge="1" parent="1" source="mIdbIiIFEZ60AHGsGnH3-27">
          <mxGeometry width="50" height="50" relative="1" as="geometry">
            <mxPoint x="240" y="920" as="sourcePoint" />
            <mxPoint x="230" y="930" as="targetPoint" />
            <Array as="points">
              <mxPoint x="290" y="930" />
            </Array>
          </mxGeometry>
        </mxCell>
        <mxCell id="mIdbIiIFEZ60AHGsGnH3-42" value="" style="endArrow=classic;html=1;rounded=0;entryX=0.5;entryY=0;entryDx=0;entryDy=0;" edge="1" parent="1" target="mIdbIiIFEZ60AHGsGnH3-33">
          <mxGeometry width="50" height="50" relative="1" as="geometry">
            <mxPoint x="230" y="930" as="sourcePoint" />
            <mxPoint x="290" y="880" as="targetPoint" />
          </mxGeometry>
        </mxCell>
        <mxCell id="mIdbIiIFEZ60AHGsGnH3-45" value="" style="endArrow=classic;html=1;rounded=0;entryX=0;entryY=0.5;entryDx=0;entryDy=0;" edge="1" parent="1" target="mIdbIiIFEZ60AHGsGnH3-14">
          <mxGeometry width="50" height="50" relative="1" as="geometry">
            <mxPoint x="380" y="1070" as="sourcePoint" />
            <mxPoint x="430" y="1020" as="targetPoint" />
            <Array as="points">
              <mxPoint x="380" y="1120" />
              <mxPoint x="40" y="1120" />
              <mxPoint x="40" y="525" />
            </Array>
          </mxGeometry>
        </mxCell>
        <mxCell id="mIdbIiIFEZ60AHGsGnH3-46" value="0" style="text;html=1;align=center;verticalAlign=middle;resizable=0;points=[];autosize=1;strokeColor=none;fillColor=none;" vertex="1" parent="1">
          <mxGeometry x="560" y="498" width="30" height="30" as="geometry" />
        </mxCell>
        <mxCell id="mIdbIiIFEZ60AHGsGnH3-50" style="edgeStyle=orthogonalEdgeStyle;rounded=0;orthogonalLoop=1;jettySize=auto;html=1;entryX=0.5;entryY=0;entryDx=0;entryDy=0;" edge="1" parent="1" source="mIdbIiIFEZ60AHGsGnH3-47" target="mIdbIiIFEZ60AHGsGnH3-49">
          <mxGeometry relative="1" as="geometry" />
        </mxCell>
        <mxCell id="mIdbIiIFEZ60AHGsGnH3-47" value="std::cout &amp;lt;&amp;lt; result &amp;lt;&amp;lt; &quot;\b \b&quot;&amp;lt;&amp;lt; std::endl;" style="shape=parallelogram;perimeter=parallelogramPerimeter;whiteSpace=wrap;html=1;fixedSize=1;" vertex="1" parent="1">
          <mxGeometry x="510" y="560" width="260" height="30" as="geometry" />
        </mxCell>
        <mxCell id="mIdbIiIFEZ60AHGsGnH3-48" value="" style="endArrow=classic;html=1;rounded=0;exitX=1;exitY=0.5;exitDx=0;exitDy=0;entryX=0.5;entryY=0;entryDx=0;entryDy=0;" edge="1" parent="1" source="mIdbIiIFEZ60AHGsGnH3-14" target="mIdbIiIFEZ60AHGsGnH3-47">
          <mxGeometry width="50" height="50" relative="1" as="geometry">
            <mxPoint x="650" y="510" as="sourcePoint" />
            <mxPoint x="700" y="460" as="targetPoint" />
            <Array as="points">
              <mxPoint x="640" y="525" />
            </Array>
          </mxGeometry>
        </mxCell>
        <mxCell id="mIdbIiIFEZ60AHGsGnH3-49" value="return 0;" style="rounded=1;whiteSpace=wrap;html=1;" vertex="1" parent="1">
          <mxGeometry x="600" y="610" width="80" height="20" as="geometry" />
        </mxCell>
        <mxCell id="mIdbIiIFEZ60AHGsGnH3-51" value="{" style="text;html=1;align=center;verticalAlign=middle;resizable=0;points=[];autosize=1;strokeColor=none;fillColor=none;" vertex="1" parent="1">
          <mxGeometry x="314" y="550" width="30" height="30" as="geometry" />
        </mxCell>
        <mxCell id="mIdbIiIFEZ60AHGsGnH3-52" value="{" style="text;html=1;align=center;verticalAlign=middle;resizable=0;points=[];autosize=1;strokeColor=none;fillColor=none;" vertex="1" parent="1">
          <mxGeometry x="195" y="638" width="30" height="30" as="geometry" />
        </mxCell>
        <mxCell id="mIdbIiIFEZ60AHGsGnH3-53" value="}" style="text;html=1;align=center;verticalAlign=middle;resizable=0;points=[];autosize=1;strokeColor=none;fillColor=none;" vertex="1" parent="1">
          <mxGeometry x="250" y="1030" width="30" height="30" as="geometry" />
        </mxCell>
        <mxCell id="mIdbIiIFEZ60AHGsGnH3-54" value="}" style="text;html=1;align=center;verticalAlign=middle;resizable=0;points=[];autosize=1;strokeColor=none;fillColor=none;" vertex="1" parent="1">
          <mxGeometry x="404" y="1088" width="30" height="30" as="geometry" />
        </mxCell>
        <mxCell id="mIdbIiIFEZ60AHGsGnH3-55" value="}" style="text;html=1;align=center;verticalAlign=middle;resizable=0;points=[];autosize=1;strokeColor=none;fillColor=none;" vertex="1" parent="1">
          <mxGeometry x="680" y="630" width="30" height="30" as="geometry" />
        </mxCell>
        <mxCell id="mIdbIiIFEZ60AHGsGnH3-58" value="" style="edgeStyle=orthogonalEdgeStyle;rounded=0;orthogonalLoop=1;jettySize=auto;html=1;" edge="1" parent="1" source="mIdbIiIFEZ60AHGsGnH3-56" target="mIdbIiIFEZ60AHGsGnH3-57">
          <mxGeometry relative="1" as="geometry" />
        </mxCell>
        <mxCell id="mIdbIiIFEZ60AHGsGnH3-56" value="std::string translator(std::string word, Translate dict[])" style="shape=process;whiteSpace=wrap;html=1;backgroundOutline=1;" vertex="1" parent="1">
          <mxGeometry x="1041" y="20" width="400" height="40" as="geometry" />
        </mxCell>
        <mxCell id="mIdbIiIFEZ60AHGsGnH3-60" value="" style="edgeStyle=orthogonalEdgeStyle;rounded=0;orthogonalLoop=1;jettySize=auto;html=1;" edge="1" parent="1" source="mIdbIiIFEZ60AHGsGnH3-57" target="mIdbIiIFEZ60AHGsGnH3-59">
          <mxGeometry relative="1" as="geometry" />
        </mxCell>
        <mxCell id="mIdbIiIFEZ60AHGsGnH3-72" style="edgeStyle=orthogonalEdgeStyle;rounded=0;orthogonalLoop=1;jettySize=auto;html=1;entryX=0.5;entryY=0;entryDx=0;entryDy=0;" edge="1" parent="1" source="mIdbIiIFEZ60AHGsGnH3-57" target="mIdbIiIFEZ60AHGsGnH3-69">
          <mxGeometry relative="1" as="geometry" />
        </mxCell>
        <mxCell id="mIdbIiIFEZ60AHGsGnH3-57" value="for (int i = 0; i &amp;lt; DICT_SIZE; i++)&amp;nbsp;" style="shape=hexagon;perimeter=hexagonPerimeter2;whiteSpace=wrap;html=1;fixedSize=1;" vertex="1" parent="1">
          <mxGeometry x="1131" y="95" width="220" height="40" as="geometry" />
        </mxCell>
        <mxCell id="mIdbIiIFEZ60AHGsGnH3-63" style="edgeStyle=orthogonalEdgeStyle;rounded=0;orthogonalLoop=1;jettySize=auto;html=1;entryX=0.5;entryY=0;entryDx=0;entryDy=0;exitX=0;exitY=0.5;exitDx=0;exitDy=0;" edge="1" parent="1" source="mIdbIiIFEZ60AHGsGnH3-59" target="mIdbIiIFEZ60AHGsGnH3-62">
          <mxGeometry relative="1" as="geometry" />
        </mxCell>
        <mxCell id="mIdbIiIFEZ60AHGsGnH3-66" style="edgeStyle=orthogonalEdgeStyle;rounded=0;orthogonalLoop=1;jettySize=auto;html=1;" edge="1" parent="1" source="mIdbIiIFEZ60AHGsGnH3-59">
          <mxGeometry relative="1" as="geometry">
            <mxPoint x="1240" y="320" as="targetPoint" />
            <Array as="points">
              <mxPoint x="1360" y="190" />
              <mxPoint x="1360" y="320" />
            </Array>
          </mxGeometry>
        </mxCell>
        <mxCell id="mIdbIiIFEZ60AHGsGnH3-59" value="if (word == dict[i].word)" style="rhombus;whiteSpace=wrap;html=1;" vertex="1" parent="1">
          <mxGeometry x="1162" y="160" width="158" height="60" as="geometry" />
        </mxCell>
        <mxCell id="mIdbIiIFEZ60AHGsGnH3-65" style="edgeStyle=orthogonalEdgeStyle;rounded=0;orthogonalLoop=1;jettySize=auto;html=1;" edge="1" parent="1" source="mIdbIiIFEZ60AHGsGnH3-62">
          <mxGeometry relative="1" as="geometry">
            <mxPoint x="1240" y="320" as="targetPoint" />
            <Array as="points">
              <mxPoint x="1121" y="320" />
            </Array>
          </mxGeometry>
        </mxCell>
        <mxCell id="mIdbIiIFEZ60AHGsGnH3-62" value="return dict[i].translation;" style="rounded=1;whiteSpace=wrap;html=1;" vertex="1" parent="1">
          <mxGeometry x="1041" y="250" width="160" height="30" as="geometry" />
        </mxCell>
        <mxCell id="mIdbIiIFEZ60AHGsGnH3-67" value="" style="endArrow=classic;html=1;rounded=0;entryX=0;entryY=0.5;entryDx=0;entryDy=0;" edge="1" parent="1" target="mIdbIiIFEZ60AHGsGnH3-57">
          <mxGeometry width="50" height="50" relative="1" as="geometry">
            <mxPoint x="1240" y="320" as="sourcePoint" />
            <mxPoint x="1290" y="270" as="targetPoint" />
            <Array as="points">
              <mxPoint x="1240" y="360" />
              <mxPoint x="1000" y="360" />
              <mxPoint x="1000" y="115" />
            </Array>
          </mxGeometry>
        </mxCell>
        <mxCell id="mIdbIiIFEZ60AHGsGnH3-69" value="return word;" style="rounded=1;whiteSpace=wrap;html=1;" vertex="1" parent="1">
          <mxGeometry x="1410" y="170" width="92" height="30" as="geometry" />
        </mxCell>
        <mxCell id="mIdbIiIFEZ60AHGsGnH3-73" value="{" style="text;html=1;align=center;verticalAlign=middle;resizable=0;points=[];autosize=1;strokeColor=none;fillColor=none;" vertex="1" parent="1">
          <mxGeometry x="1201" y="60" width="30" height="30" as="geometry" />
        </mxCell>
        <mxCell id="mIdbIiIFEZ60AHGsGnH3-74" value="{" style="text;html=1;align=center;verticalAlign=middle;resizable=0;points=[];autosize=1;strokeColor=none;fillColor=none;" vertex="1" parent="1">
          <mxGeometry x="1201" y="130" width="30" height="30" as="geometry" />
        </mxCell>
        <mxCell id="mIdbIiIFEZ60AHGsGnH3-75" value="}" style="text;html=1;align=center;verticalAlign=middle;resizable=0;points=[];autosize=1;strokeColor=none;fillColor=none;" vertex="1" parent="1">
          <mxGeometry x="1241" y="325" width="30" height="30" as="geometry" />
        </mxCell>
        <mxCell id="mIdbIiIFEZ60AHGsGnH3-76" value="}" style="text;html=1;align=center;verticalAlign=middle;resizable=0;points=[];autosize=1;strokeColor=none;fillColor=none;" vertex="1" parent="1">
          <mxGeometry x="1470" y="205" width="30" height="30" as="geometry" />
        </mxCell>
        <mxCell id="mIdbIiIFEZ60AHGsGnH3-77" value="1" style="text;html=1;align=center;verticalAlign=middle;resizable=0;points=[];autosize=1;strokeColor=none;fillColor=none;" vertex="1" parent="1">
          <mxGeometry x="1211" y="130" width="30" height="30" as="geometry" />
        </mxCell>
        <mxCell id="mIdbIiIFEZ60AHGsGnH3-78" value="0" style="text;html=1;align=center;verticalAlign=middle;resizable=0;points=[];autosize=1;strokeColor=none;fillColor=none;" vertex="1" parent="1">
          <mxGeometry x="1340" y="90" width="30" height="30" as="geometry" />
        </mxCell>
        <mxCell id="mIdbIiIFEZ60AHGsGnH3-79" value="1" style="text;html=1;align=center;verticalAlign=middle;resizable=0;points=[];autosize=1;strokeColor=none;fillColor=none;" vertex="1" parent="1">
          <mxGeometry x="1150" y="160" width="30" height="30" as="geometry" />
        </mxCell>
        <mxCell id="mIdbIiIFEZ60AHGsGnH3-80" value="0" style="text;html=1;align=center;verticalAlign=middle;resizable=0;points=[];autosize=1;strokeColor=none;fillColor=none;" vertex="1" parent="1">
          <mxGeometry x="1300" y="160" width="30" height="30" as="geometry" />
        </mxCell>
      </root>
    </mxGraphModel>
  </diagram>
</mxfile>
